<svg width="54" height="54" viewBox="0 0 54 54" fill="none" xmlns="http://www.w3.org/2000/svg">
<g filter="url(#filter0_ddiii_22_6)">
<g clip-path="url(#clip0_22_6)">
<rect x="3" width="48" height="48" rx="12" fill="#0A0D12"/>
<rect width="48" height="48" transform="translate(3)" fill="url(#paint0_linear_22_6)"/>
<path d="M29.8449 10.476C29.0019 12.6866 27.4066 13.9636 25.1292 14.4195C24.6773 14.51 24.2304 14.6249 23.7796 14.721C23.2066 14.8431 22.7456 15.1587 22.3254 15.5491C22.2345 15.6335 22.2027 15.7346 22.2497 15.8484C22.3051 15.9822 22.402 16.0828 22.5386 16.1351C22.597 16.1575 22.6311 16.1029 22.6669 16.0682C22.7513 15.9864 22.8378 15.9062 22.9164 15.8189C23.3405 15.3471 23.8946 15.1638 24.5006 15.0995C24.8038 15.0673 25.1083 15.0481 25.4377 15.021C25.4091 15.2624 25.303 15.4402 25.2213 15.624C24.8163 16.5358 24.1269 17.035 23.1206 17.0721C22.7507 17.0858 22.6893 17.1624 22.7629 17.5113C22.9313 18.3101 23.152 19.0929 23.4413 19.8577C23.8296 20.8838 24.5602 21.523 25.5866 21.8533C26.414 22.1196 27.2631 22.2445 28.1277 22.3086C28.8538 22.3625 29.5792 22.3508 30.3044 22.3404C30.9697 22.3309 31.6327 22.2615 32.2944 22.1844C32.6938 22.1379 33.096 22.1162 33.4968 22.0822C34.1185 22.0295 34.7428 22.0101 35.3644 22.0425C36.5043 22.1019 37.58 22.3801 38.4923 23.1146C38.8719 23.4202 39.2101 23.7674 39.4384 24.2076C39.4418 24.2142 39.4448 24.2209 39.4481 24.2275C39.6171 24.5586 39.6222 24.8136 39.4632 24.9664C39.3069 25.1165 39.0698 25.0839 38.7408 24.8669C38.7108 24.8471 38.6817 24.826 38.6271 24.7881C38.6563 25.0546 38.7286 25.2878 38.7444 25.531C38.7904 26.2376 38.5805 26.8967 38.3962 27.5618C38.3119 27.8662 38.2401 28.174 38.2144 28.4893C38.164 29.1077 38.4815 29.5909 38.8141 30.0614C39.063 30.4134 39.3952 30.6873 39.7463 30.9287C39.9491 31.0681 40.0233 31.2453 40.01 31.4681C39.9887 31.8269 39.9496 32.1847 39.9204 32.5431C39.8786 33.0556 39.8175 33.5676 39.8034 34.0809C39.7796 34.9411 39.727 35.7993 39.6587 36.6563C39.6315 36.9981 39.6041 37.3444 39.4979 37.6759C39.4479 37.8322 39.394 37.9761 39.178 37.9029C39.0924 37.8739 39.0479 37.9459 39.0009 38.0041C38.8551 38.1844 38.8362 38.4101 38.7854 38.6224C38.7311 38.8494 38.6096 38.9631 38.3687 38.9547C38.0168 38.9425 37.6644 38.9463 37.3123 38.9382C37.1967 38.9355 37.078 38.934 36.9552 38.8661C37.0532 38.5647 37.218 38.2955 37.4549 38.1043C38.0345 37.6368 38.2795 36.9904 38.387 36.3041C38.5498 35.2649 38.5825 34.2141 38.4527 33.1626C38.3693 32.4868 37.9894 32.0192 37.4616 31.6428C36.7863 31.1613 36.0647 30.7479 35.4232 30.2157C34.8125 29.7091 34.2834 29.1339 33.8576 28.4642C33.4897 27.8856 33.3076 27.2527 33.324 26.5618C33.2272 26.8883 33.2137 27.2209 33.252 27.554C33.2906 27.8899 33.4244 28.2026 33.5431 28.548C33.2356 28.5704 32.9527 28.5803 32.6741 28.6296C31.8294 28.7792 31.0097 29.0305 30.1821 29.2484C29.3552 29.4661 28.5138 29.5562 27.6639 29.5798C27.2696 29.5908 26.8775 29.6387 26.4784 29.5951C26.2461 29.5697 26.2285 29.4661 26.2566 29.2975C26.3287 28.8652 26.2785 28.4304 26.2918 27.9969C26.2927 27.9699 26.283 27.9426 26.271 27.8748C26.1476 28.0963 26.1527 28.3113 26.114 28.5107C25.9211 29.5038 25.7438 30.5002 25.6283 31.5058C25.6007 31.7459 25.5829 31.9908 25.5821 32.2313C25.5796 33.0192 25.4952 33.8056 25.5334 34.5933C25.5806 35.5686 25.5849 36.5474 25.7437 37.5148C25.7555 37.5867 25.7492 37.6618 25.7503 37.7354C25.7525 37.8884 25.6699 37.9645 25.5284 37.9246C25.3758 37.8816 25.3258 37.9582 25.2951 38.0766C25.2399 38.2893 25.178 38.5013 25.14 38.7173C25.1076 38.9014 25.0138 38.9938 24.8323 38.9947C24.4214 38.9967 24.0105 38.9947 23.5995 38.9953C23.4621 38.9955 23.4151 38.9405 23.459 38.8015C23.5572 38.491 23.6767 38.1972 23.8938 37.9434C24.326 37.438 24.5103 36.8448 24.4345 36.1818C24.3842 35.7422 24.3903 35.3005 24.3638 34.8602C24.2597 33.1285 23.9869 31.4326 23.3873 29.7988C23.3599 29.7241 23.3275 29.6426 23.2737 29.5876C22.8607 29.1653 22.6326 28.6434 22.4573 28.0915C22.4271 27.9964 22.4249 27.9948 22.3021 27.859C22.2898 28.3539 22.4164 28.7743 22.615 29.1679C22.5715 29.2216 22.5367 29.2026 22.5061 29.1852C21.1167 28.3941 19.9631 27.3677 19.2678 25.8908C18.913 25.1372 18.7274 24.3438 18.7169 23.5059C18.7046 22.5119 18.8459 21.5457 19.1613 20.6033C19.228 20.404 19.2933 20.266 19.5524 20.2494C19.9171 20.226 20.2688 20.1067 20.5927 19.9222C20.8449 19.7786 21.0285 19.5868 21.0821 19.2786C20.6144 19.6491 20.0738 19.7779 19.5137 19.8063C19.1081 19.8268 18.7161 19.8639 18.3292 20.002C17.97 20.1302 17.6508 20.1042 17.3169 19.8205C17.0657 19.6072 16.8853 19.4033 16.8088 19.0907C16.7438 18.8251 16.7779 18.6799 17.0071 18.5436C17.325 18.3548 17.5828 18.1166 17.7495 17.7818C17.8126 17.6552 17.9087 17.5468 18.026 17.4716C18.2394 17.3348 18.3519 17.1351 18.408 16.9C18.5544 16.2867 18.9632 15.9515 19.5497 15.8069C19.7148 15.7662 19.7559 15.6813 19.6863 15.5359C19.4423 15.0256 19.0858 14.6591 18.502 14.549C17.9563 14.4461 17.4035 14.3594 16.8848 14.1491C15.2604 13.4904 14.3002 12.2999 14.0498 10.5491C13.956 9.89277 13.9906 9.24432 14.189 8.60964C14.2358 8.45983 14.278 8.29803 14.4643 8.19697C14.5448 8.37177 14.5578 8.54309 14.5601 8.71366C14.5652 9.0802 14.5141 9.44427 14.5616 9.81404C14.6633 10.6063 14.9188 11.3419 15.3152 12.0296C15.399 12.1749 15.5208 12.2961 15.683 12.3831C15.7551 12.2937 15.7242 12.1987 15.7111 12.1094C15.6502 11.6958 15.6862 11.287 15.78 10.8839C15.8214 10.7056 15.8887 10.5308 16.0306 10.4013C16.0733 10.3623 16.1211 10.3188 16.1864 10.3516C16.2422 10.3796 16.2392 10.4373 16.2382 10.4875C16.233 10.7525 16.227 11.0175 16.2175 11.2823C16.1906 12.0283 16.4051 12.6805 16.9867 13.1698C17.3056 13.4381 17.6927 13.5842 18.0961 13.6823C18.2667 13.7237 18.4405 13.7573 18.6052 13.8161C18.8039 13.887 18.855 13.8046 18.8528 13.6239C18.8494 13.3591 18.8494 13.0941 18.8962 12.8317C18.9443 12.5616 19.0149 12.3005 19.1821 12.0763C19.2251 12.0186 19.2592 11.9486 19.3533 11.941C19.4608 12.0588 19.4258 12.2109 19.4023 12.3354C19.302 12.8656 19.482 13.3235 19.7492 13.7543C19.9349 14.0537 20.1597 14.3282 20.3569 14.6207C20.4633 14.7786 20.564 14.9444 20.6385 15.1189C20.7084 15.2828 20.8114 15.3229 20.9787 15.3242C21.2813 15.3266 21.5364 15.2566 21.7376 15.01C22.1621 14.4898 22.722 14.1929 23.3621 14.0152C23.9014 13.8655 24.4171 13.6582 24.8248 13.2434C25.2631 12.7974 25.4555 12.2457 25.5451 11.6444C25.5526 11.5937 25.5604 11.5429 25.573 11.4934C25.5779 11.474 25.5962 11.4579 25.6084 11.4403C25.932 11.6737 25.9236 12.3964 25.5888 13.3219C25.6573 13.4046 25.7516 13.3782 25.8328 13.3645C26.5266 13.2477 27.4034 12.4297 27.5539 11.7435C27.6587 11.265 27.6285 10.7768 27.5962 10.2927C27.5767 10.0006 27.5168 9.71136 27.4889 9.41949C27.4783 9.30972 27.4309 9.15749 27.5666 9.10184C27.7169 9.04024 27.7881 9.18614 27.8514 9.28746C28.0531 9.61044 28.1421 9.97606 28.2131 10.3444C28.2873 10.7298 28.285 11.1181 28.2267 11.5068C28.213 11.5983 28.2247 11.6936 28.2247 11.848C29.1979 10.7177 29.5246 9.36444 29.8605 8C30.0912 8.0993 30.0833 8.27596 30.1074 8.42546C30.2206 9.12788 30.0682 9.79821 29.8449 10.476ZM20.2645 17.2867C20.5121 17.0896 20.7697 16.9254 21.1402 17.0575C20.8421 16.7534 20.5422 16.6849 20.2846 16.837C20.0474 16.9771 19.7939 17.4191 19.8481 17.5972C19.8882 17.6148 19.9234 17.5951 19.9494 17.5725C20.0486 17.4865 20.144 17.3961 20.2645 17.2867ZM17.9943 19.1992C17.9047 18.9728 17.691 18.9043 17.5427 19.0535C17.4929 19.1036 17.4578 19.1585 17.4902 19.2288C17.5245 19.3033 17.5934 19.3011 17.6603 19.2887C17.7664 19.2689 17.872 19.2458 17.9943 19.1992Z" fill="url(#paint1_linear_22_6)"/>
<path d="M33.8559 29.2381C34.2432 29.7346 34.6872 30.1503 35.1695 30.5262C35.2335 30.5761 35.3094 30.6173 35.3032 30.7132C35.269 31.2395 35.4466 31.7286 35.5844 32.2205C35.6676 32.5175 35.6187 32.7641 35.4741 33.0186C34.8237 34.1632 34.2162 35.3303 33.7008 36.543C33.543 36.9143 33.4217 37.3013 33.2809 37.68C33.2343 37.8055 33.1828 37.9276 33.0193 37.9432C32.9367 37.9511 32.9048 38.0239 32.8724 38.0922C32.7838 38.2786 32.7137 38.4715 32.656 38.6695C32.5898 38.8967 32.442 39.005 32.2004 38.9993C31.8266 38.9905 31.4524 38.9948 31.0785 38.9926C31.0347 38.9923 30.99 38.9884 30.9346 38.9245C31.0421 38.5686 31.1789 38.2005 31.4612 37.9279C32.2684 37.1486 32.6978 36.151 33.1027 35.1381C33.3453 34.5314 33.548 33.9127 33.6593 33.2635C33.7482 32.7447 33.5928 32.2912 33.3655 31.848C32.9228 30.9847 32.4851 30.1185 31.9701 29.2949C31.9553 29.2712 31.949 29.2422 31.93 29.193C32.2283 29.0727 32.5369 29.0316 32.8418 28.9794C32.9857 28.9548 33.134 28.9565 33.278 28.9324C33.5432 28.8881 33.7313 28.9822 33.8559 29.2381Z" fill="url(#paint2_linear_22_6)"/>
<path d="M20.412 35.5423C20.868 33.3947 21.2091 31.2467 21.4318 29.0778C21.4939 29.0434 21.5419 29.0856 21.5893 29.1161C21.9856 29.3716 22.4113 29.5696 22.8397 29.7622C23.1309 29.8931 23.242 30.1445 23.146 30.4574C22.8161 31.5325 22.4258 32.5867 22.0591 33.6492C21.63 34.8927 21.3212 36.1688 21.1292 37.472C21.0949 37.705 20.9819 37.8562 20.7267 37.8457C20.6255 37.8415 20.5868 37.9027 20.5472 37.9776C20.4196 38.2187 20.3086 38.4662 20.2503 38.7343C20.2273 38.8402 20.1947 38.9438 20.0727 38.9592C19.5427 39.0258 19.013 38.9969 18.4448 38.9702C18.5955 38.5834 18.7098 38.2305 18.9926 37.9634C19.6951 37.2996 20.1311 36.4768 20.412 35.5423Z" fill="url(#paint3_linear_22_6)"/>
<path d="M17.9854 16.5184C17.6412 16.2064 17.3351 15.8831 17.1553 15.4603C17.1176 15.3719 17.0902 15.2828 17.0893 15.1845C17.0881 15.0432 17.17 14.9856 17.293 14.9759C17.6379 14.9488 18.5475 15.344 18.8184 15.67C18.6958 15.7718 18.5617 15.8717 18.4414 15.9862C18.3188 16.1029 18.232 16.2483 18.1581 16.4019C18.1274 16.4656 18.1204 16.5767 17.9854 16.5184Z" fill="url(#paint4_linear_22_6)"/>
</g>
<rect x="4" y="1" width="46" height="46" rx="11" stroke="url(#paint5_linear_22_6)" stroke-width="2"/>
</g>
<defs>
<filter id="filter0_ddiii_22_6" x="0" y="-3" width="54" height="57" filterUnits="userSpaceOnUse" color-interpolation-filters="sRGB">
<feFlood flood-opacity="0" result="BackgroundImageFix"/>
<feColorMatrix in="SourceAlpha" type="matrix" values="0 0 0 0 0 0 0 0 0 0 0 0 0 0 0 0 0 0 127 0" result="hardAlpha"/>
<feOffset dy="1"/>
<feGaussianBlur stdDeviation="0.5"/>
<feComposite in2="hardAlpha" operator="out"/>
<feColorMatrix type="matrix" values="0 0 0 0 0.162923 0 0 0 0 0.162923 0 0 0 0 0.162923 0 0 0 0.08 0"/>
<feBlend mode="normal" in2="BackgroundImageFix" result="effect1_dropShadow_22_6"/>
<feColorMatrix in="SourceAlpha" type="matrix" values="0 0 0 0 0 0 0 0 0 0 0 0 0 0 0 0 0 0 127 0" result="hardAlpha"/>
<feMorphology radius="1" operator="erode" in="SourceAlpha" result="effect2_dropShadow_22_6"/>
<feOffset dy="3"/>
<feGaussianBlur stdDeviation="2"/>
<feComposite in2="hardAlpha" operator="out"/>
<feColorMatrix type="matrix" values="0 0 0 0 0.164706 0 0 0 0 0.164706 0 0 0 0 0.164706 0 0 0 0.14 0"/>
<feBlend mode="normal" in2="effect1_dropShadow_22_6" result="effect2_dropShadow_22_6"/>
<feBlend mode="normal" in="SourceGraphic" in2="effect2_dropShadow_22_6" result="shape"/>
<feColorMatrix in="SourceAlpha" type="matrix" values="0 0 0 0 0 0 0 0 0 0 0 0 0 0 0 0 0 0 127 0" result="hardAlpha"/>
<feOffset dy="-3"/>
<feGaussianBlur stdDeviation="1.5"/>
<feComposite in2="hardAlpha" operator="arithmetic" k2="-1" k3="1"/>
<feColorMatrix type="matrix" values="0 0 0 0 0 0 0 0 0 0 0 0 0 0 0 0 0 0 0.1 0"/>
<feBlend mode="normal" in2="shape" result="effect3_innerShadow_22_6"/>
<feColorMatrix in="SourceAlpha" type="matrix" values="0 0 0 0 0 0 0 0 0 0 0 0 0 0 0 0 0 0 127 0" result="hardAlpha"/>
<feOffset dy="3"/>
<feGaussianBlur stdDeviation="1.5"/>
<feComposite in2="hardAlpha" operator="arithmetic" k2="-1" k3="1"/>
<feColorMatrix type="matrix" values="0 0 0 0 1 0 0 0 0 1 0 0 0 0 1 0 0 0 0.1 0"/>
<feBlend mode="normal" in2="effect3_innerShadow_22_6" result="effect4_innerShadow_22_6"/>
<feColorMatrix in="SourceAlpha" type="matrix" values="0 0 0 0 0 0 0 0 0 0 0 0 0 0 0 0 0 0 127 0" result="hardAlpha"/>
<feMorphology radius="1" operator="erode" in="SourceAlpha" result="effect5_innerShadow_22_6"/>
<feOffset/>
<feComposite in2="hardAlpha" operator="arithmetic" k2="-1" k3="1"/>
<feColorMatrix type="matrix" values="0 0 0 0 0 0 0 0 0 0 0 0 0 0 0 0 0 0 0.2 0"/>
<feBlend mode="normal" in2="effect4_innerShadow_22_6" result="effect5_innerShadow_22_6"/>
</filter>
<linearGradient id="paint0_linear_22_6" x1="24" y1="5.96047e-07" x2="26" y2="48" gradientUnits="userSpaceOnUse">
<stop stop-color="white" stop-opacity="0"/>
<stop offset="1" stop-color="white" stop-opacity="0.12"/>
</linearGradient>
<linearGradient id="paint1_linear_22_6" x1="27.0057" y1="8" x2="27.0057" y2="38.9956" gradientUnits="userSpaceOnUse">
<stop stop-color="#E1E1E1"/>
<stop offset="1" stop-color="white"/>
</linearGradient>
<linearGradient id="paint2_linear_22_6" x1="33.2798" y1="28.9219" x2="33.2798" y2="38.9996" gradientUnits="userSpaceOnUse">
<stop stop-color="#E1E1E1"/>
<stop offset="1" stop-color="white"/>
</linearGradient>
<linearGradient id="paint3_linear_22_6" x1="20.8122" y1="29.0649" x2="20.8122" y2="39" gradientUnits="userSpaceOnUse">
<stop stop-color="#E1E1E1"/>
<stop offset="1" stop-color="white"/>
</linearGradient>
<linearGradient id="paint4_linear_22_6" x1="17.9538" y1="14.9746" x2="17.9538" y2="16.5348" gradientUnits="userSpaceOnUse">
<stop stop-color="#E1E1E1"/>
<stop offset="1" stop-color="white"/>
</linearGradient>
<linearGradient id="paint5_linear_22_6" x1="27" y1="0" x2="27" y2="48" gradientUnits="userSpaceOnUse">
<stop stop-color="white" stop-opacity="0.12"/>
<stop offset="1" stop-color="white" stop-opacity="0"/>
</linearGradient>
<clipPath id="clip0_22_6">
<rect x="3" width="48" height="48" rx="12" fill="white"/>
</clipPath>
</defs>
</svg>
